<?xml version="1.0" encoding="UTF-8" standalone="no"?>
<svg
   xmlns:dc="http://purl.org/dc/elements/1.1/"
   xmlns:cc="http://creativecommons.org/ns#"
   xmlns:rdf="http://www.w3.org/1999/02/22-rdf-syntax-ns#"
   xmlns:svg="http://www.w3.org/2000/svg"
   xmlns="http://www.w3.org/2000/svg"
   xmlns:sodipodi="http://sodipodi.sourceforge.net/DTD/sodipodi-0.dtd"
   xmlns:inkscape="http://www.inkscape.org/namespaces/inkscape"
   sodipodi:docname="undraw_mind_map_cwng.svg"
   inkscape:version="1.0 (4035a4fb49, 2020-05-01)"
   id="svg566"
   version="1.1"
   viewBox="0 0 210 297"
   height="297mm"
   width="210mm">
  <defs
     id="defs560">
    <linearGradient
       id="bd43dd7f-2dfd-4389-bf1e-697a1c0f972b"
       x1="891.82001"
       y1="790.71997"
       x2="891.82001"
       y2="522.90002"
       gradientUnits="userSpaceOnUse"
       gradientTransform="matrix(0.66894729,0,0,0.81233469,-491.00406,-385.76114)">
      <stop
         offset="0"
         stop-color="gray"
         stop-opacity="0.25"
         id="stop254" />
      <stop
         offset="0.54"
         stop-color="gray"
         stop-opacity="0.12"
         id="stop256" />
      <stop
         offset="1"
         stop-color="gray"
         stop-opacity="0.1"
         id="stop258" />
    </linearGradient>
  </defs>
  <sodipodi:namedview
     inkscape:window-maximized="0"
     inkscape:window-y="122"
     inkscape:window-x="1661"
     inkscape:window-height="900"
     inkscape:window-width="1439"
     showgrid="false"
     inkscape:document-rotation="0"
     inkscape:current-layer="layer1"
     inkscape:document-units="mm"
     inkscape:cy="560"
     inkscape:cx="400"
     inkscape:zoom="0.35"
     inkscape:pageshadow="2"
     inkscape:pageopacity="0.0"
     borderopacity="1.0"
     bordercolor="#666666"
     pagecolor="#ffffff"
     id="base" />
  <metadata
     id="metadata563">
    <rdf:RDF>
      <cc:Work
         rdf:about="">
        <dc:format>image/svg+xml</dc:format>
        <dc:type
           rdf:resource="http://purl.org/dc/dcmitype/StillImage" />
        <dc:title></dc:title>
      </cc:Work>
    </rdf:RDF>
  </metadata>
  <g
     id="layer1"
     inkscape:groupmode="layer"
     inkscape:label="Calque 1">
    <path
       d="m 180.83308,219.33885 -18.50977,-32.59088 c 0,0 -0.34784,-8.06646 -1.55864,-9.95922 -1.21079,-1.89274 -0.26089,-6.07626 -0.26089,-6.07626 0,0 1.29774,-2.30704 0.17384,-2.51013 -1.12382,-0.203 -0.17384,-5.34515 -0.17384,-5.34515 l -0.0871,-8.1802 c 0,0 1.03687,-7.85528 0.17383,-9.74804 a 2.5553787,3.1031185 0 0 1 0.0871,-3.35493 c 0,0 1.03687,-4.50844 0,-5.68633 -1.03688,-1.17791 -0.78268,-8.1721 -0.52179,-13.72034 0.2609,-5.54824 -1.81283,-8.70012 -1.81283,-9.5368 0,-0.83671 -6.83665,-9.01694 -6.83665,-9.74804 0,-0.73111 -4.32141,-3.769218 -6.91692,-4.614054 -2.59551,-0.844836 -3.89328,-1.462203 -3.8063,-1.884606 0.0871,-0.422433 -4.0672,-2.095823 -4.0672,-2.095823 0,0 -3.63238,-0.308698 -5.01712,-2.510129 -1.38472,-2.201432 -5.61916,-2.843177 -5.73287,-2.859399 0,-0.146391 -0.0603,-0.292477 -0.0804,-0.438685 l -0.0804,-0.471159 c 0.32778,-0.666093 0.62882,-1.348469 0.90308,-2.055193 l 0.2408,-0.641745 a 7.35842,8.9356816 0 0 0 4.25451,-1.624664 5.8198416,7.0673121 0 0 0 2.07375,-5.028355 9.097683,11.047752 0 0 0 -1.01012,-5.580745 c -0.76259,-1.892732 -1.87304,-3.842347 -1.49172,-5.889414 0.16714,-0.885466 0.60204,-1.624694 0.82947,-2.526382 a 5.4786785,6.6530213 0 0 0 -0.62209,-4.963347 c -0.66895,-1.519055 -1.56536,-2.859428 -2.2945,-4.337884 a 13.867278,16.839699 0 0 1 -1.82622,-6.125008 7.9470939,9.6505364 0 0 0 -0.66894,-3.338683 5.0973783,6.1899907 0 0 0 -1.51854,-1.860259 15.151656,18.399381 0 0 0 -9.29836,-3.419913 c -2.35468,0.09739 -4.68263,0.869183 -7.03733,0.519885 a 26.042118,31.624189 0 0 1 -4.11402,-1.307869 c -2.89655,-1.039771 -6.247979,-1.470299 -8.769907,0.544293 -2.521928,2.014593 -3.532043,5.97877 -5.244534,9.081889 -1.518508,2.745694 -3.732722,5.044607 -4.883329,7.952762 0,-0.05691 0,-0.113826 0.03348,-0.170434 a 8.2614989,10.032334 0 0 0 -0.668947,2.12017 c -0.441482,2.282662 -0.07366,4.670931 0.381322,6.945466 0.240803,1.177913 0.56191,2.437026 1.39808,3.103119 0.836196,0.666124 2.006838,0.51179 3.02365,0.722976 -0.04018,0.202999 -0.08036,0.398055 -0.113839,0.601146 A 19.733945,23.963874 0 0 0 103.0943,98.71541 c 0,0.211216 0,0.430528 0,0.633619 0,0.625493 -0.0402,1.226641 -0.0937,1.803381 v 0 c 0,0 -8.696327,-2.168932 -11.030969,-0.70673 -2.334616,1.46221 -6.923596,2.62384 -7.612605,3.46055 -0.689009,0.83671 -2.421588,0.21121 -3.980249,5.13396 -1.558633,4.92275 -1.725856,9.95923 -3.719329,12.25815 -1.993472,2.29888 -3.02365,3.88294 -3.110597,5.55636 -0.08705,1.67339 0.254197,2.09582 -0.521785,2.62384 -0.775982,0.52801 -1.899803,2.72131 -1.55866,3.55802 0,0 0.434812,2.09582 -0.949902,3.14372 a 2.8831629,3.5011626 0 0 0 -1.210794,3.14375 c 0,0 -0.521786,2.30704 -1.73258,2.82692 -1.210794,0.51989 -2.006839,3.98856 -2.006839,3.98856 l -3.920034,5.47514 -7.779854,-10.44661 a 3.2778417,3.9804402 0 0 0 -4.622306,-0.28426 l -3.752812,4.22415 a 7.5189678,9.1306425 0 0 0 -3.819668,2.76191 10.034209,12.185021 0 0 0 -2.006865,3.57428 l -2.087116,2.29079 a 3.2109471,3.8992067 0 0 0 -1.076999,2.79442 3.2443944,3.9398233 0 0 0 0.541848,4.32163 l 4.976971,6.69365 v 0.0569 a 8.696315,10.560351 0 0 0 -4.816418,2.38015 c -7.438685,7.96085 -7.525658,15.29625 -6.401837,18.68369 1.123848,3.38744 10.549309,16.2467 10.549309,16.2467 0,0 5.478668,8.65136 13.378951,13.24918 v 0 l -0.05357,0.073 c -0.160446,0.203 -0.31441,0.4224 -0.468267,0.65796 l -0.126965,0.203 -0.120535,0.203 -0.140625,0.2517 -0.107143,0.203 -0.15375,0.30069 a 1.3378946,1.6246694 0 0 1 -0.09375,0.203 c -0.06027,0.12996 -0.120536,0.26813 -0.173839,0.40618 l -0.06027,0.13817 c -0.07366,0.17866 -0.140357,0.37365 -0.214018,0.56865 -0.07366,0.19508 -0.04687,0.14608 -0.06696,0.21121 -0.01875,0.0651 -0.09375,0.27635 -0.133661,0.4224 l -0.08036,0.26813 c -0.04018,0.12996 -0.07366,0.26813 -0.113839,0.40619 -0.04018,0.13817 -0.04687,0.19508 -0.07366,0.30069 l -0.100446,0.45488 -0.06027,0.28426 c -0.05357,0.24378 -0.09375,0.49553 -0.140625,0.75548 l -0.04018,0.30069 c 0,0.17043 -0.05357,0.3493 -0.07366,0.53614 -0.01875,0.18687 -0.03348,0.25169 -0.04687,0.3818 -0.01339,0.12996 0,0.34117 -0.05357,0.51989 -0.05357,0.17865 0,0.26813 -0.03348,0.39805 -0.03348,0.12996 0,0.39806 0,0.60112 0,0.203 0,0.23556 0,0.36555 0,0.32495 0,0.66612 -0.03348,1.01542 -0.173839,12.25814 0.41475,14.03714 0.41475,14.03714 0,0 1.22416,3.90735 4.59565,4.18352 a 5.9736995,7.254149 0 0 0 1.478384,-0.0974 c 4.495337,-0.94229 15.051316,-3.14372 18.770672,-2.29889 2.234276,0.50364 6.375051,-0.24378 9.318425,-0.91794 l 0.782678,-0.18686 0.535152,2.08769 1.712517,-0.56864 1.451598,1.01542 0.916473,0.64175 c 1.705794,7.0267 8.636113,4.6303 8.636113,4.6303 l 1.64561,1.15353 16.72368,0.51989 a 33.801907,41.047275 0 0 0 5.91348,3.45242 5.9402519,7.2135324 0 0 0 0.8362,0.21943 38.437712,46.676752 0 0 0 4.64917,0.10561 c 1.28437,0 2.27442,-0.10561 2.27442,-0.10561 0,0 -0.17384,-5.49951 -0.41475,-11.66512 6.37508,-0.32495 12.04106,-0.81233 15.45937,-1.53534 8.87025,-1.90086 12.58291,-11.77883 13.95426,-17.04278 a 40.571654,49.2681 0 0 1 0.86962,6.49869 39.207003,47.610938 0 0 0 1.38472,5.68635 15.833982,19.227963 0 0 0 1.90649,4.19165 c 6.57576,-2.72132 2.59554,-6.80736 1.2108,-8.58638 -1.38471,-1.779 0.9499,-3.24933 0.9499,-3.24933 0,0 1.81955,-1.47033 1.64563,-2.83505 -0.17384,-1.36472 -0.26089,-2.82693 5.61916,-2.72132 5.88003,0.10561 5.62583,-5.86506 5.62583,-5.86506 z M 89.495033,152.42683 c 0.07366,0.60114 0.896383,7.05107 1.63891,8.74884 a 9.6127727,11.67325 0 0 1 0.193928,3.45242 c -3.485222,-0.33305 -7.117604,-0.51989 -7.117604,-0.51989 a 0.82949462,1.0072951 0 0 1 0.187232,0.54426 l -0.548545,-0.1543 c -0.254196,-0.073 -0.521759,-0.14639 -0.796044,-0.23556 l 6.421899,-11.85197 z m -12.710005,24.57313 6.020516,1.16163 0.508419,0.0974 a 20.262414,24.605618 0 0 0 -0.31441,3.46055 c 0,0.10561 0.13366,0.23556 0.327776,0.38993 a 7.806615,9.4799464 0 0 0 -0.113839,1.73027 c 0.09375,0.58489 2.916615,1.83588 6.154311,2.87568 -0.04687,0.21122 -0.09375,0.40615 -0.133661,0.60111 v 0 c -2.856401,-1.82775 -7.358408,-2.68071 -7.880194,-4.06165 -0.521785,-1.38098 -15.793843,-7.82281 -15.793843,-7.82281 0,0 -0.56191,-0.36555 -1.525204,-0.92607 l 4.013677,0.92607 1.110455,-0.13817 a 60.151742,73.045138 0 0 0 7.612631,1.70592 z"
       fill="url(#bd43dd7f-2dfd-4389-bf1e-697a1c0f972b)"
       id="path363"
       style="fill:url(#bd43dd7f-2dfd-4389-bf1e-697a1c0f972b);stroke-width:0.737163" />
    <path
       d="m 161.14597,223.89605 c 0,0 -2.40153,17.58704 -14.57636,20.19465 -12.17485,2.60758 -52.806704,2.07957 -52.806704,2.07957 0,0 -23.232554,-4.06169 -31.634507,-27.8956 -8.401979,-23.83388 -13.800397,-33.30569 -6.602515,-33.73625 7.197854,-0.43053 46.036936,15.9299 48.264546,16.14109 2.22758,0.21121 59.49617,-36.23011 57.35554,23.21654 z"
       fill="#65617d"
       id="path365"
       style="stroke-width:0.737163" />
    <path
       d="m 161.14597,223.89605 c 0,0 -2.40153,17.58704 -14.57636,20.19465 -12.17485,2.60758 -52.806704,2.07957 -52.806704,2.07957 0,0 -23.232554,-4.06169 -31.634507,-27.8956 -8.401979,-23.83388 -13.800397,-33.30569 -6.602515,-33.73625 7.197854,-0.43053 46.036936,15.9299 48.264546,16.14109 2.22758,0.21121 59.49617,-36.23011 57.35554,23.21654 z"
       opacity="0.05"
       id="path367"
       style="stroke-width:0.737163" />
    <path
       d="m 52.181153,243.46518 c 0,0 1.210794,3.87485 4.548828,4.15917 a 5.8666678,7.1241756 0 0 0 1.464991,-0.0974 c 4.461882,-0.94232 14.917522,-3.1275 18.603422,-2.29079 2.22091,0.49554 6.32156,-0.24378 9.244872,-0.90981 1.939928,-0.44679 3.344731,-0.86109 3.344731,-0.86109 0,0 -3.425008,-13.80967 -3.85982,-14.26458 -0.434839,-0.4549 -15.425941,-11.3727 -15.425941,-11.3727 l -11.900568,-1.00729 v 0 a 6.2814152,7.6278231 0 0 0 -4.013677,2.87568 c -1.250946,1.844 -2.327945,4.87402 -2.401526,9.82924 -0.207321,12.16879 0.394688,13.93966 0.394688,13.93966 z"
       fill="#3f3d56"
       id="path369"
       style="stroke-width:0.737163" />
    <path
       d="m 52.181153,243.46518 c 0,0 1.210794,3.87485 4.548828,4.15917 a 49.455272,60.055906 0 0 1 -3.224329,-5.68636 l 0.06027,-10.09731 a 14.643257,17.782007 0 0 1 4.68265,-14.98758 h -0.04687 c 0,0 -6.254676,0.51988 -6.428596,12.70492 -0.173839,12.18501 0.408054,13.90716 0.408054,13.90716 z"
       opacity="0.05"
       id="path371"
       style="stroke-width:0.737163" />
    <path
       d="m 103.69009,221.39404 11.05768,-10.51161 17.39265,-20.82012 c 0,0 -1.87976,-0.11383 -4.71608,-0.25991 -0.66894,0.54426 -2.67581,2.25828 -2.75606,4.34598 -0.0803,2.55073 -4.68265,0.17865 -7.10424,1.62466 -2.42159,1.44598 -14.11478,19.72349 -16.17514,19.59354 -2.060353,-0.12996 -3.685897,-1.26724 -4.542156,0.50363 l -0.06027,0.11383 z"
       opacity="0.1"
       id="path373"
       style="stroke-width:0.737163" />
    <path
       d="m 54.187991,219.68815 c 0.394661,0.22735 0.796045,0.45491 1.197402,0.66612 8.401979,4.37036 18.777368,13.53348 19.546654,15.19877 0.474937,1.01543 6.488783,5.45076 11.131281,8.77322 1.939928,-0.44678 3.344731,-0.86108 3.344731,-0.86108 0,0 -3.425007,-13.80968 -3.85982,-14.26458 -0.434812,-0.45491 -15.425941,-11.37271 -15.425941,-11.37271 l -11.92063,-1.00729 v 0 a 6.2814152,7.6278231 0 0 0 -4.013677,2.86755 z"
       opacity="0.1"
       id="path375"
       style="stroke-width:0.737163" />
    <path
       d="m 30.835035,189.85109 c 1.117151,3.33059 10.462336,16.13297 10.462336,16.13297 0,0 5.91348,9.37436 14.315486,13.74472 8.401952,4.37036 18.770645,13.53348 19.546627,15.19877 0.495027,1.07228 7.191185,5.97064 11.907264,9.33371 l 1.056937,0.74735 2.341312,1.62469 1.237553,0.86919 c 0,0 2.869793,-2.80255 5.732864,-5.62135 2.863096,-2.8188 5.625856,-5.57262 5.672676,-5.68635 0.0804,-0.3087 1.19743,-3.85047 0.93654,-4.06166 -0.13366,-0.10561 -0.72247,-1.55156 -1.79947,-3.24936 a 12.208288,14.825109 0 0 0 -4.368237,-4.38661 c -3.946794,-2.18518 -5.659284,-7.16478 -5.659284,-7.16478 0,0 -0.374625,-0.32495 -0.943205,-0.7636 a 11.432309,13.8828 0 0 0 -3.859847,-2.0877 c -1.88641,-0.28426 -5.398391,-4.97147 -5.398391,-4.97147 0,0 -2.401526,-1.87651 -3.344731,-4.26478 -0.943232,-2.38824 -14.195084,-13.37102 -15.425941,-14.40269 l 32.229873,25.14178 7.712973,6.0194 11.0644,-10.51162 17.39263,-20.82015 c 0,0 -2.34132,-0.13817 -5.73956,-0.31679 -8.4622,-0.44681 -23.48006,-1.14541 -25.37989,-0.62553 a 14.348919,17.42458 0 0 1 -4.682625,0.37368 c 0,0 -4.281266,0.23556 -7.110908,-1.57591 -2.829642,-1.81153 -7.291524,-2.66446 -7.806614,-4.00483 -0.515089,-1.34035 -15.686807,-7.80653 -15.686807,-7.80653 0,0 -20.657109,-13.32229 -28.035579,-5.41016 -7.378498,7.91214 -7.478837,15.21503 -6.368382,18.54561 z"
       fill="#65617d"
       id="path377"
       style="stroke-width:0.737163" />
    <path
       d="m 97.448807,113.4429 2.675783,10.71468 3.43171,24.15883 12.59627,1.0398 3.65245,-7.31102 3.63908,-7.31101 c 0,0 2.26773,-9.74801 3.89997,-19.20358 1.43823,-8.35082 2.38143,-16.457918 0.8161,-17.335228 -1.39141,-0.812331 -2.30785,-3.598656 -2.90322,-6.620545 -0.0737,-0.373647 -0.14705,-0.755449 -0.20732,-1.129126 a 49.408448,59.999042 0 0 1 -0.8362,-7.765924 c 0,0 -26.403338,-1.665294 -22.7442,11.559514 a 17.272219,20.974482 0 0 1 0.99673,7.026699 14.583051,17.708897 0 0 1 -0.0937,1.78715 12.342077,14.987575 0 0 1 -4.923457,10.38976 z"
       fill="#ee8e9e"
       id="path379"
       style="stroke-width:0.737163" />
    <path
       d="m 91.956746,111.672 0.949902,18.21253 2.140633,15.5156 2.401526,7.18106 2.140633,39.30075 c 0,0 20.67048,2.90003 25.70094,-0.0487 a 2.2275945,2.7050746 0 0 0 0.90978,-0.86921 c 6.06736,-11.12899 4.08058,-43.37866 4.08058,-43.37866 l 2.31456,-20.82015 -1.54527,-10.80406 -3.72603,-0.48738 -2.86979,-0.36555 c 0,0 -0.66895,0.96666 -1.58542,2.43699 -2.54199,4.06166 -7.21792,12.08753 -6.90353,15.43437 0.42814,4.58154 -0.51509,9.2606 -2.00684,9.9917 -1.49175,0.7311 -2.67579,1.98209 -2.90992,0.7311 -0.23411,-1.25098 -0.51509,-1.55968 -0.26089,-3.33055 0.25419,-1.77091 -1.11713,-7.18919 -1.11713,-7.18919 0,0 -2.31458,-6.34432 -2.14063,-9.05751 0.17384,-2.71319 -0.2542,-5.82447 -0.94323,-6.55554 -0.68901,-0.7311 -1.62555,-1.45408 -0.85626,-4.78466 0.76931,-3.33056 -3.37819,-9.78865 -3.37819,-9.78865 z"
       fill="#e3e8f4"
       id="path381"
       style="stroke-width:0.737163" />
    <path
       d="m 119.26317,157.17086 0.86295,31.12867 4.95022,3.33059 a 2.2744208,2.761938 0 0 0 0.90977,-0.86109 c 6.06734,-11.13711 4.08056,-43.38678 4.08056,-43.38678 l 2.31456,-20.82015 -1.54527,-10.80406 -3.72603,-0.48738 c 1.43823,-8.35082 2.38147,-16.45792 0.81611,-17.33523 -1.39141,-0.812332 -2.30786,-3.598657 -2.90322,-6.620546 v 0 l -2.67579,22.022406 c 0,0 0.22072,1.99022 0.30102,4.06166 a 9.5391886,11.583893 0 0 1 -0.21402,3.87486 c -0.60206,1.87648 -0.17384,5.20706 -0.17384,5.20706 -1.54526,3.30618 -2.32125,9.43119 -2.67578,15.34498 -0.50842,7.84719 -0.32111,15.34501 -0.32111,15.34501 z"
       opacity="0.1"
       id="path383"
       style="stroke-width:0.737163" />
    <path
       d="m 125.0964,90.819378 c 0,0 4.32139,0.649841 5.69274,2.843146 1.37135,2.193305 4.97027,2.493878 4.97027,2.493878 0,0 4.11405,1.624663 4.01368,2.07957 -0.10045,0.454907 1.19743,1.047927 3.76618,1.876508 2.56877,0.82859 6.86341,3.85045 6.86341,4.58158 0,0.7311 6.80319,8.8463 6.80319,9.68301 0,0.83671 2.06036,3.95608 1.79946,9.47184 -0.26089,5.51574 -0.51509,12.49371 0.51509,13.63909 1.03018,1.14538 0,5.62134 0,5.62134 a 2.5286208,3.0706252 0 0 0 -0.087,3.33059 c 0.85626,1.87648 -0.16714,9.68303 -0.16714,9.68303 l 0.0804,8.12335 c 0,0 -0.9432,5.10146 0.17384,5.31265 1.11715,0.21122 -0.17384,2.502 -0.17384,2.502 0,0 -0.9432,4.15914 0.2609,6.03565 1.20409,1.87649 1.54526,9.88613 1.54526,9.88613 l 18.34253,32.37966 c 0,0 0.2609,5.93004 -5.57231,5.83256 -5.83323,-0.0974 -5.74626,1.34847 -5.57234,2.70507 0.17384,1.35659 -1.62554,2.81067 -1.62554,2.81067 0,0 -2.31455,1.45407 -0.94323,3.24936 1.37135,1.79525 5.31144,5.83256 -1.2041,8.53762 a 15.894188,19.301073 0 0 1 -1.88644,-4.16727 38.798944,47.115413 0 0 1 -1.37134,-5.62137 c 0,0 -0.60204,-7.91213 -1.79947,-8.93568 -1.1974,-1.02355 -1.03018,-6.03565 -1.03018,-6.03565 0,0 1.71919,-4.06166 -0.66894,-5.72696 -2.38814,-1.66529 -37.20685,-25.09302 -37.20685,-25.09302 l -0.86962,-31.16927 c 0,0 -0.60206,-23.00533 2.99686,-30.7144 0,0 -0.42811,-3.33056 0.17384,-5.20704 0.60207,-1.87651 -0.0871,-7.91216 -0.0871,-7.91216 z"
       fill="#3f3d56"
       id="path385"
       style="stroke-width:0.737163" />
    <path
       d="m 102.63982,103.31308 c 0,0 -8.622718,-2.16083 -10.93727,-0.69862 -2.314553,1.4622 -6.856712,2.59948 -7.545721,3.43619 -0.689035,0.83668 -2.394829,0.203 -3.940097,5.10147 -1.545267,4.89837 -1.712517,9.88609 -3.6859,12.185 -1.97341,2.29892 -3.003588,3.85048 -3.090535,5.51577 -0.08705,1.66529 0.260893,2.07957 -0.508419,2.60758 -0.769286,0.52801 -1.88641,2.7051 -1.545268,3.53365 0.34117,0.82858 17.827441,19.15485 17.827441,19.15485 0,0 0.862955,6.97797 1.63224,8.74887 0.769286,1.77088 -0.856259,26.12467 -2.568749,27.79809 -1.712517,1.67339 11.572791,1.51093 11.572791,1.51093 0,0 0.595367,-15.98676 1.110457,-16.81531 0.51509,-0.82858 -0.34117,-17.87139 -0.34117,-17.87139 0,0 -0.087,-14.57328 1.03018,-18.42372 1.11712,-3.85047 0.99002,-16.65288 0.99002,-16.65288 0,0 0.98336,-7.68469 2.18079,-9.47994 1.1974,-1.79528 -2.18079,-9.65054 -2.18079,-9.65054 z"
       opacity="0.1"
       id="path387"
       style="stroke-width:0.737163" />
    <path
       d="m 102.3522,102.99626 c 0,0 -8.616053,-2.15268 -10.930606,-0.6986 -2.314552,1.45408 -6.836649,2.59133 -7.518961,3.40369 -0.682339,0.81234 -2.401526,0.21122 -3.946793,5.10147 -1.545268,4.89024 -1.712518,9.89422 -3.685901,12.185 -1.973383,2.29079 -2.996892,3.85048 -3.083838,5.51577 -0.08705,1.66527 0.254196,2.07957 -0.515089,2.59946 -0.769313,0.51988 -1.886437,2.70506 -1.545268,3.54177 0.341143,0.83671 17.847503,19.18736 17.847503,19.18736 0,0 0.856259,6.96981 1.632241,8.74071 0.775955,1.77091 -0.862955,26.13283 -2.575446,27.79809 -1.712517,1.66529 11.572764,1.51096 11.572764,1.51096 0,0 0.602064,-15.97863 1.117154,-16.81534 0.51509,-0.83671 -0.34784,-17.87136 -0.34784,-17.87136 0,0 -0.0804,-14.57328 1.03015,-18.42375 1.11046,-3.85047 0.94993,-16.69348 0.94993,-16.69348 0,0 0.98333,-7.68469 2.18076,-9.47182 1.1974,-1.78715 -2.18076,-9.60993 -2.18076,-9.60993 z"
       fill="#3f3d56"
       id="path389"
       style="stroke-width:0.737163" />
    <path
       d="m 101.47588,94.182439 a 17.272219,20.974482 0 0 1 0.99672,7.026701 19.640292,23.850147 0 0 0 22.55691,-10.820322 49.408448,59.999042 0 0 1 -0.83619,-7.765893 c 0,0 -26.403344,-1.665294 -22.71744,11.559514 z"
       opacity="0.1"
       id="path391"
       style="stroke-width:0.737163" />
    <path
       d="M 88.444765,77.732651 A 19.633603,23.842024 0 1 0 88.872908,72.7774 19.633603,23.842024 0 0 0 88.444765,77.732651 Z"
       fill="#ee8e9e"
       id="path393"
       style="stroke-width:0.737163" />
    <path
       d="m 75.841823,132.90642 -4.68265,1.77091 c 0,0 0.434812,2.07957 -0.943205,3.11937 a 2.869784,3.484916 0 0 0 -1.197428,3.12746 c 0,0 -0.515089,2.29079 -1.712491,2.81071 -1.197428,0.51988 -1.97341,3.95605 -1.97341,3.95605 l -3.946793,5.51576 c 0,0 -1.451598,1.45408 -1.197401,2.18518 0.254196,0.7311 -1.545268,0.9342 -1.545268,0.9342 l 0.896384,18.53745 8.147783,1.86838 5.057248,-0.62549 4.114016,-1.86838 3.598928,-2.60759 1.63224,-5.10146 7.197882,-13.32229 z"
       fill="#3f3d56"
       id="path395"
       style="stroke-width:0.737163" />
    <path
       d="m 59.81382,157.78823 c 0,0 -10.462309,-18.32627 -18.262253,-8.43202 -7.799917,9.89425 3.170811,25.92161 5.746257,25.40172 2.575446,-0.51991 14.830575,-1.35662 14.830575,-1.35662 z"
       fill="#ee8e9e"
       id="path397"
       style="stroke-width:0.737163" />
    <rect
       x="81.752121"
       y="83.946304"
       width="57.362022"
       height="49.869434"
       rx="1.0795246"
       transform="matrix(0.84997524,0.52682264,-0.38747707,0.92187934,0,0)"
       fill="#3f3d56"
       id="rect399"
       style="stroke-width:0.741736" />
    <rect
       x="86.361839"
       y="88.443703"
       width="48.2141"
       height="40.678829"
       transform="matrix(0.84997524,0.52682264,-0.38747707,0.92187934,0,0)"
       fill="#f1f1f1"
       id="rect401"
       style="stroke-width:0.741736" />
    <ellipse
       cx="29.704494"
       cy="144.77461"
       fill="#e6e8ec"
       id="circle403"
       rx="0.7559104"
       ry="0.91793829"
       style="stroke-width:0.737163" />
    <ellipse
       cx="74.062416"
       cy="172.3696"
       fill="#e6e8ec"
       id="circle405"
       rx="1.244242"
       ry="1.5109426"
       style="stroke-width:0.737163" />
    <path
       d="m 53.037385,161.6387 c -0.08036,13.74472 23.3195,16.65288 23.3195,16.65288 l 5.980391,1.1535 2.675812,0.51989 1.117124,-13.436 c 0,0 -1.22416,-0.21943 -2.756061,-0.64987 -2.267732,-0.64174 -5.204409,-1.75465 -5.819837,-3.30621 -1.023482,-2.59945 -24.429956,-14.67888 -24.516929,-0.93419 z"
       fill="#ee8e9e"
       id="path407"
       style="stroke-width:0.737163" />
    <path
       d="m 88.872908,72.7774 a 2.2811103,2.7700614 0 0 1 1.438231,0.812332 c 0.668947,0.852962 0.668947,2.363922 1.558634,2.883807 a 1.7258841,2.0958235 0 0 0 1.023508,0.146086 c 2.281098,-0.389929 3.598928,-3.517426 5.786382,-4.378484 a 5.7997732,7.0429421 0 0 1 3.833067,0.406181 2.7961997,3.3955592 0 0 1 1.271,0.982918 c 0.73583,1.153505 0.22072,2.851272 0.56191,4.240372 0.46827,1.933362 2.36807,2.705094 4.01368,2.956911 1.64563,0.251694 3.49862,0.389929 4.60237,1.900858 a 4.1942996,5.0933387 0 0 1 0.81611,4.06169 2.6155839,3.1762287 0 0 0 0,1.486551 c 0.4549,1.567811 2.67579,1.332216 3.25779,0.09739 0.42811,-0.893562 0.30101,-1.624664 1.29774,-1.884607 a 4.2277469,5.1339553 0 0 1 2.10051,0.438655 15.439304,18.748686 0 0 0 5.42515,1.007297 19.633603,23.842024 0 1 0 -36.972716,-15.093163 z"
       opacity="0.1"
       id="path409"
       style="stroke-width:0.737163" />
    <path
       d="m 113.76444,87.594398 a 2.6757892,3.2493388 0 0 1 0,-1.494708 4.1942996,5.0933387 0 0 0 -0.81614,-4.061659 c -1.10376,-1.510959 -2.95674,-1.624663 -4.60234,-1.900858 -1.64561,-0.276042 -3.54541,-1.023548 -4.01368,-2.956911 -0.34117,-1.389099 0.17384,-3.086867 -0.56194,-4.232276 a 2.7694418,3.3630656 0 0 0 -1.27098,-0.991044 5.7997732,7.0429421 0 0 0 -3.833063,-0.406151 c -2.187481,0.861058 -3.505284,3.988555 -5.786408,4.378484 a 1.7258841,2.0958235 0 0 1 -1.023482,-0.146086 c -0.862955,-0.519885 -0.896384,-2.030814 -1.55866,-2.883776 -1.043545,-1.340343 -3.016928,-0.47116 -4.294633,-1.47033 -0.8295,-0.649871 -1.15058,-1.91711 -1.384714,-3.078741 -0.448205,-2.266409 -0.816106,-4.638426 -0.374624,-6.904835 0.742553,-3.874852 3.592257,-6.498685 5.411783,-9.837369 1.699125,-3.078771 2.675785,-6.97797 5.19774,-9.025067 2.521927,-2.047066 5.819841,-1.575907 8.696301,-0.536137 a 25.339724,30.771239 0 0 0 4.07389,1.291617 c 2.31455,0.349299 4.6425,-0.414277 6.97711,-0.511759 a 15.024556,18.245037 0 0 1 9.21142,3.395535 5.1107572,6.2062373 0 0 1 1.50515,1.852133 7.6862047,9.3337257 0 0 1 0.66894,3.314335 13.927483,16.912809 0 0 0 1.81283,6.092504 c 0.71577,1.462204 1.62555,2.786325 2.27443,4.30538 a 5.4719887,6.644898 0 0 1 0.61543,4.930874 c -0.22072,0.852931 -0.66895,1.624663 -0.82281,2.510099 -0.38129,2.030845 0.72247,3.972333 1.47836,5.848813 a 9.0642357,11.007135 0 0 1 1.00342,5.548241 5.7596361,6.9942019 0 0 1 -2.06033,4.987756 7.35842,8.9356816 0 0 1 -4.34148,1.624663 15.385788,18.683698 0 0 1 -5.53219,-1.031674 4.2277469,5.1339553 0 0 0 -2.1005,-0.438655 c -0.99673,0.243782 -0.86963,0.991044 -1.29775,1.884606 -0.5753,1.267269 -2.79621,1.502834 -3.25108,-0.05691 z"
       fill="#3f3d56"
       id="path411"
       style="stroke-width:0.737163" />
    <path
       d="m 103.18837,222.01954 11.0644,-10.51159 17.39263,-20.82015 c 0,0 -2.34132,-0.13817 -5.73956,-0.31682 a 3.7661733,4.5734446 0 0 0 -1.2175,2.84318 c -0.0803,2.5426 -4.68265,0.17865 -7.10424,1.62466 -2.42158,1.44598 -14.13484,19.71537 -16.1952,19.60166 -2.060353,-0.11382 -3.685897,-1.26727 -4.542156,0.50364 l -0.06027,0.11382 a 2.4617261,2.9893918 0 0 1 -1.337893,0.94232 z"
       opacity="0.1"
       id="path413"
       style="stroke-width:0.737163" />
    <path
       d="m 80.899045,221.28847 5.558944,21.54309 0.869652,3.37931 2.675784,-0.87731 5.833204,-1.94961 25.981921,-8.66762 a 22.490008,27.310693 0 0 0 9.36527,-3.03001 28.390123,34.475486 0 0 1 16.14838,-4.27288 c 3.43171,0.38993 7.2514,-1.40532 10.42221,-8.52137 0,0 7.19786,-25.816 -10.97742,-33.20824 -18.17531,-7.39225 -19.03824,3.9317 -19.03824,3.9317 l -0.2475,0.18687 c -0.66894,0.54426 -2.67581,2.25828 -2.75606,4.34598 -0.0804,2.55073 -4.68265,0.17865 -7.10424,1.62466 -2.42159,1.44595 -14.18166,19.72349 -16.24202,19.59351 -2.060383,-0.12996 -3.6859,-1.26724 -4.542159,0.50366 l -0.06027,0.11383 c -0.635517,1.06415 -2.548686,1.30787 -3.806329,1.35659 -0.668946,0 -1.190705,0 -1.190705,0 l -0.160446,0.0569 -1.337892,0.47928 z"
       fill="#65617d"
       id="path415"
       style="stroke-width:0.737163" />
    <path
       d="m 82.337276,179.44508 2.675812,0.51989 1.117124,-13.436 c 0,0 -1.22416,-0.21943 -2.756061,-0.64987 0.401384,1.86836 -0.515089,9.1144 -1.036875,13.56598 z"
       opacity="0.1"
       id="path417"
       style="stroke-width:0.737163" />
    <path
       d="m 152.43627,116.69223 c 0,0 7.97387,-2.81067 6.02052,24.67875 -1.95332,27.48938 -16.72368,44.86524 -16.72368,44.86524 0,0 -16.97118,9.05751 -24.60388,7.60343 a 132.63887,161.06973 0 0 0 -13.19834,-1.77087 19.399472,23.557707 0 0 0 -7.719636,-2.50201 c -4.281267,-0.203 -13.285282,-3.43616 -13.459228,-4.47596 -0.173839,-1.03977 2.234303,-16.34418 1.204125,-17.48956 0,0 12.000906,0.60111 13.198308,1.62466 1.197428,1.02355 2.916611,0.3007 4.200991,0 1.28437,-0.30069 5.23117,-4.45971 13.03111,-0.81233 0,0 2.67579,0.3087 3.6859,-0.51988 1.01009,-0.82859 2.67579,-0.21122 2.67579,-0.21122 a 7.6862047,9.3337257 0 0 0 1.86635,-1.14541 c 0.25419,-0.41428 2.31455,0 2.31455,0 a 0.9097683,1.1047752 0 0 0 1.2844,-0.7311 5.5790204,6.7748714 0 0 1 1.1974,-2.29079 c 0,0 2.31455,-15.82426 6.68946,-21.75431 0,0 1.2844,-1.35659 0.94323,-3.02189 -0.34116,-1.66529 7.10422,-25.37734 17.39263,-22.04675 z"
       opacity="0.1"
       id="path419"
       style="stroke-width:0.737163" />
    <path
       d="m 152.2289,114.58016 c 0,0 7.97386,-2.81068 6.02051,24.67871 -1.95332,27.48942 -16.72368,44.86527 -16.72368,44.86527 0,0 -16.97788,9.05754 -24.60388,7.60343 -7.62599,-1.45404 -13.23176,-1.77087 -13.23176,-1.77087 a 19.399472,23.557707 0 0 0 -7.71297,-2.502 c -4.287936,-0.203 -13.285281,-3.43617 -13.459228,-4.47597 -0.173839,-1.03977 2.227607,-16.34418 1.197428,-17.48956 0,0 12.000907,0.60112 13.205005,1.62467 1.204124,1.02355 2.916615,0.29247 4.200985,0 1.28441,-0.29248 5.23117,-4.46784 13.03112,-0.81233 0,0 2.67578,0.30869 3.6859,-0.51989 1.01012,-0.82858 2.67578,-0.21122 2.67578,-0.21122 a 7.5524152,9.1712594 0 0 0 1.85968,-1.14537 c 0.2542,-0.41431 2.31455,0 2.31455,0 a 0.9097683,1.1047752 0 0 0 1.28438,-0.73111 5.7462572,6.9779553 0 0 1 1.2041,-2.29078 c 0,0 2.31458,-15.8243 6.68949,-21.75434 0,0 1.29107,-1.3566 0.9432,-3.02189 -0.34784,-1.66529 7.13097,-25.37734 17.41939,-22.04675 z"
       fill="#3f3d56"
       id="path421"
       style="stroke-width:0.737163" />
    <path
       d="m 90.311139,217.86852 11.318591,16.63663 c 0.0469,-0.0487 0.0737,-0.0813 0.0737,-0.0974 0.0871,-0.3087 1.19741,-3.85048 0.94321,-4.06169 -0.2542,-0.21122 -2.22758,-5.41826 -6.174373,-7.60347 a 11.699888,14.207734 0 0 1 -4.843177,-5.3614 z"
       opacity="0.1"
       id="path423"
       style="stroke-width:0.737163" />
    <path
       d="m 90.464997,246.65765 1.237553,0.86922 c 0,0 2.869793,-2.80255 5.732864,-5.62138 2.863096,-2.8188 5.625856,-5.57262 5.672676,-5.68632 0.0804,-0.3087 1.19743,-3.85047 0.93654,-4.06169 -0.13366,-0.10561 -0.72247,-1.55156 -1.79947,-3.24933 -7.679513,-2.61571 -2.789515,3.8586 -2.14063,4.15102 0,0 -9.365275,-2.59946 -9.860301,9.74804 a 12.041052,14.622024 0 0 0 0.220714,3.85044 z"
       opacity="0.1"
       id="path425"
       style="stroke-width:0.737163" />
    <path
       d="m 99.930583,251.9216 1.632237,1.14538 16.54307,0.51989 a 33.447363,40.616737 0 0 0 5.85999,3.41994 5.1241364,6.2224839 0 0 0 0.8295,0.22735 39.166864,47.562197 0 0 0 4.60904,0.1056 c 1.27099,0 2.24767,-0.1056 2.24767,-0.1056 0,0 -0.78268,-25.34487 -1.33789,-28.00931 -0.28098,-1.27536 -1.67239,-0.99107 -3.03704,-0.35742 a 20.068419,24.370042 0 0 0 -2.96344,1.81963 c 0,0 -7.03063,0.81233 -8.14779,1.56781 -1.11712,0.75545 -4.28123,-0.42243 -6.25465,0 -1.97338,0.4224 -5.48536,-2.81883 -5.48536,-2.81883 -9.606077,-3.85044 -4.20099,3.33059 -3.51865,3.63929 0,0 -9.365274,-2.59949 -9.853604,9.74801 -0.48833,12.34747 8.876917,9.09814 8.876917,9.09814 z"
       fill="#3f3d56"
       id="path427"
       style="stroke-width:0.737163" />
    <path
       d="m 123.85215,242.10858 c 0.18053,5.2477 3.54544,11.76261 5.55227,15.20693 1.27099,0 2.24767,-0.10561 2.24767,-0.10561 0,0 -0.78268,-25.34484 -1.33789,-28.0093 -0.28098,-1.27537 -1.67239,-0.99105 -3.03704,-0.35743 -1.69243,3.77734 -3.57217,9.04129 -3.42501,13.26541 z"
       fill="#565387"
       id="path429"
       style="stroke-width:0.737163" />
    <path
       d="m 123.85215,242.10858 c 0.18053,5.2477 3.54544,11.76261 5.55227,15.20693 1.27099,0 2.24767,-0.10561 2.24767,-0.10561 0,0 -0.78268,-25.34484 -1.33789,-28.0093 -0.28098,-1.27537 -1.67239,-0.99105 -3.03704,-0.35743 -1.69243,3.77734 -3.57217,9.04129 -3.42501,13.26541 z"
       opacity="0.1"
       id="path431"
       style="stroke-width:0.737163" />
    <path
       d="m 121.02251,242.80721 c 1.13721,5.06083 1.12384,10.73906 2.94337,14.17522 a 5.1241364,6.2224839 0 0 0 0.8295,0.22735 39.166864,47.562197 0 0 0 4.60904,0.10561 c 1.27099,0 2.24767,-0.10561 2.24767,-0.10561 0,0 -0.78268,-25.34484 -1.33789,-28.0093 -0.28098,-1.27537 -1.67239,-0.99105 -3.03704,-0.35743 a 20.068419,24.370042 0 0 0 -2.96344,1.81963 c 0,0 -4.74951,5.66197 -3.29121,12.14441 z"
       opacity="0.05"
       id="path433"
       style="stroke-width:0.737163" />
    <path
       d="m 63.941229,191.44325 c 0,0 8.221363,3.24936 15.185111,14.75202 z"
       opacity="0.1"
       id="path435"
       style="stroke-width:0.737163" />
    <g
       opacity="0.1"
       id="g441"
       transform="matrix(0.6689473,0,0,0.81233471,-458.82768,-307.69578)">
      <path
         d="m 929.41,556.77 c 0,0.1 0,0.19 -0.07,0.28 a 10.86,10.86 0 0 1 -0.43,1.07 8.1,8.1 0 0 1 0.5,-1.35 z"
         transform="translate(-48.1,-96.1)"
         id="path437" />
      <path
         d="m 859.9,550.56 a 12,12 0 0 1 1,-2.59 c -0.07,0.22 -0.13,0.44 -0.19,0.67 -0.65,2.79 -0.11,5.71 0.57,8.49 0.35,1.44 0.83,3 2.07,3.8 1.91,1.22 4.86,0.16 6.42,1.81 1,1 1,2.91 2.33,3.55 a 2.58,2.58 0 0 0 1.53,0.18 c 3.4,-0.48 5.38,-4.33 8.65,-5.39 a 8.67,8.67 0 0 1 5.73,0.5 4.17,4.17 0 0 1 1.9,1.22 c 1.09,1.41 0.33,3.5 0.83,5.21 0.71,2.38 3.55,3.32 6,3.64 2.45,0.32 5.23,0.48 6.88,2.34 a 6.27,6.27 0 0 1 1.22,5 3.78,3.78 0 0 0 0,1.83 c 0.68,1.92 4,1.64 4.87,0.12 0.64,-1.1 0.44,-2 1.94,-2.33 a 6.44,6.44 0 0 1 3.14,0.55 23.26,23.26 0 0 0 8.28,1.24 11,11 0 0 0 6.49,-2 7.54,7.54 0 0 0 2,-2.42 8.21,8.21 0 0 1 -2.77,4.34 11,11 0 0 1 -6.49,2 23,23 0 0 1 -8.3,-1.32 6.32,6.32 0 0 0 -3.14,-0.54 c -1.49,0.3 -1.3,1.22 -1.94,2.32 -0.87,1.52 -4.19,1.81 -4.87,-0.11 a 4,4 0 0 1 0,-1.84 6.27,6.27 0 0 0 -1.22,-5 c -1.65,-1.86 -4.42,-2 -6.88,-2.34 -2.46,-0.34 -5.3,-1.26 -6,-3.64 -0.51,-1.71 0.26,-3.8 -0.84,-5.21 a 4.19,4.19 0 0 0 -1.9,-1.22 8.67,8.67 0 0 0 -5.73,-0.5 c -3.27,1.06 -5.25,4.91 -8.65,5.39 a 2.58,2.58 0 0 1 -1.53,-0.18 c -1.29,-0.64 -1.34,-2.5 -2.33,-3.55 -1.56,-1.65 -4.51,-0.58 -6.42,-1.81 -1.24,-0.8 -1.72,-2.36 -2.07,-3.79 -0.69,-2.71 -1.23,-5.63 -0.58,-8.42 z"
         transform="translate(-48.1,-96.1)"
         id="path439" />
    </g>
    <path
       d="m 132.05345,144.79901 c -1.57203,2.57511 -3.34473,4.95526 -4.7562,7.67657 -1.4115,2.72132 -2.3681,5.90567 -2.08045,9.09002 1.43826,-1.78713 2.09381,-4.26475 3.00359,-6.49869 1.53187,-3.80171 3.82636,-7.02669 5.76632,-10.56034 0.36793,-0.66613 2.736,-4.52469 1.53857,-4.71153 -0.99003,-0.13818 -2.93668,4.12663 -3.47183,5.00397 z"
       opacity="0.1"
       id="path443"
       style="stroke-width:0.737163" />
  </g>
</svg>
