<?xml version="1.0" encoding="UTF-8" standalone="no"?>
<svg
   xmlns:dc="http://purl.org/dc/elements/1.1/"
   xmlns:cc="http://creativecommons.org/ns#"
   xmlns:rdf="http://www.w3.org/1999/02/22-rdf-syntax-ns#"
   xmlns:svg="http://www.w3.org/2000/svg"
   xmlns="http://www.w3.org/2000/svg"
   xmlns:sodipodi="http://sodipodi.sourceforge.net/DTD/sodipodi-0.dtd"
   xmlns:inkscape="http://www.inkscape.org/namespaces/inkscape"
   inkscape:version="1.0 (4035a4fb49, 2020-05-01)"
   sodipodi:docname="undraw_pitching_36ol.svg"
   version="1.1"
   viewBox="0 0 920.29689 567.13633"
   height="567.13633"
   width="920.29689"
   data-name="Layer 1"
   id="fbe6a470-e545-4a3c-ab88-8fc38f19e601">
  <metadata
     id="metadata953">
    <rdf:RDF>
      <cc:Work
         rdf:about="">
        <dc:format>image/svg+xml</dc:format>
        <dc:type
           rdf:resource="http://purl.org/dc/dcmitype/StillImage" />
      </cc:Work>
    </rdf:RDF>
  </metadata>
  <defs
     id="defs951" />
  <sodipodi:namedview
     inkscape:current-layer="fbe6a470-e545-4a3c-ab88-8fc38f19e601"
     inkscape:window-maximized="1"
     inkscape:window-y="32"
     inkscape:window-x="1432"
     inkscape:cy="315.51952"
     inkscape:cx="460.14844"
     inkscape:zoom="1.2519035"
     showgrid="false"
     id="namedview949"
     inkscape:window-height="1017"
     inkscape:window-width="1920"
     inkscape:pageshadow="2"
     inkscape:pageopacity="0"
     guidetolerance="10"
     gridtolerance="10"
     objecttolerance="10"
     borderopacity="1"
     bordercolor="#666666"
     pagecolor="#ffffff" />
  <polygon
     id="polygon916"
     fill="#ffb9b9"
     points="153.95 481.518 165.052 487.573 157.987 510.786 146.886 511.795 140.83 498.675 153.95 481.518" />
  <polygon
     id="polygon918"
     fill="#ffb9b9"
     points="119.636 527.943 119.636 539.044 102.479 538.035 102.718 528.892 119.636 527.943" />
  <polygon
     id="polygon920"
     fill="#2f2e41"
     points="157.987 348.297 151.932 423.991 132.756 535.007 102.479 530.97 112.571 443.166 108.534 362.427 157.987 348.297" />
  <path
     id="path922"
     fill="#2f2e41"
     transform="translate(-139.85155 -166.43184)"
     d="M217.09913,458.21145l72.66561,1.00922,8.07394,55.50842-49.453,23.21264-12.11093,44.40674,61.5639,65.60083-24.22186,30.27735s-34.31432-46.42523-59.54543-72.66559-13.12018-105.97064-13.12018-105.97064Z" />
  <circle
     id="circle924"
     fill="#ffb9b9"
     r="22.20337"
     cy="126.26344"
     cx="120.64505" />
  <path
     id="path926"
     fill="#ffb9b9"
     transform="translate(-139.85155 -166.43184)"
     d="M268.57057,307.834v22.20337L253.4319,354.25918s-23.21262-17.15714-18.1664-21.19412,6.05547-35.32355,6.05547-35.32355Z" />
  <polygon
     id="polygon928"
     fill="#fff"
     points="128.719 159.569 143.858 177.735 137.802 303.89 90.368 302.881 82.294 192.874 92.386 164.615 99.309 155.196 111.562 173.698 128.719 159.569" />
  <path
     id="path930"
     fill="#2f2e41"
     transform="translate(-139.85155 -166.43184)"
     d="M292.79248,391.60125l11.10168,42.38828-11.10168,42.38824,18.16639,24.22186,16.14791-76.70257s-12.111-62.57309-13.1202-69.63785-3.02772-8.074-3.02772-8.074l-8.074,1.00925Z" />
  <polygon
     id="polygon932"
     fill="#2f2e41"
     points="72.202 241.317 65.137 254.438 63.118 276.641 67.155 301.872 53.026 325.085 38.897 261.502 54.035 179.753 60.091 179.753 72.202 241.317" />
  <path
     id="path934"
     fill="#2f2e41"
     transform="translate(-139.85155 -166.43184)"
     d="M297.83867,646.94009s14.12936,4.037,19.17564,5.0462-3.02773,20.18488-3.02773,20.18488-5.0462,26.24035-6.05546,31.28656-8.074,22.20343-17.15717,24.22186-3.02772-35.32355-3.02772-35.32355-4.037-12.1109-4.037-16.14789,6.05546-2.01849,6.05546-2.01849C305.91259,672.17117,297.83867,646.94009,297.83867,646.94009Z" />
  <path
     id="path936"
     fill="#2f2e41"
     transform="translate(-139.85155 -166.43184)"
     d="M264.53355,724.65182c-1.00925,6.05548,1.00926,6.05548-15.13867,8.074S237.284,721.62411,237.284,721.62411a84.80035,84.80035,0,0,1,4.037-18.16638c3.02774-8.074,19.17564,2.01849,19.17564,2.01849S265.5428,718.59634,264.53355,724.65182Z" />
  <path
     id="path938"
     fill="#2f2e41"
     transform="translate(-139.85155 -166.43184)"
     d="M241.29467,298.44634l-.526,8.97562s-6.5124-14.72672-7.52165-29.86536,16.14792-18.16638,26.24036-19.17563S286.737,264.43642,286.737,272.5104s-18.1664,6.05548-25.23111,4.037-10.09244,15.13867-10.09244,15.13867l-4.037,1.00925Z" />
  <polygon
     id="polygon940"
     fill="#fff"
     points="134.676 166.716 128.719 159.569 111.562 173.698 128.719 185.809 134.676 166.716" />
  <polygon
     id="polygon942"
     fill="#fff"
     points="92.386 164.615 99.451 155.532 111.562 173.698 96.423 184.8 92.386 164.615" />
  <path
     id="path944"
     fill="#2f2e41"
     transform="translate(-139.85155 -166.43184)"
     d="M295.82019,405.73064l-4.037,38.35129,8.07393,23.21265,5.04622,22.20337s-.00006,21.19415-20.18489,22.20337-37.342-63.5824-37.342-63.5824-3.02773,14.12939-5.04622,22.20337-36.3328,40.36981-36.3328,40.36981-8.07394-1.00928-15.13866-17.15716,14.12942-31.28656,14.12942-31.28656l6.05549-21.19416-2.01849-26.24035L194.8957,346.18523l41.88364-21.69876-4.5416,58.03156,15.13866,45.416,22.708-100.4198,7.56933,5.55085,32.29583,13.12018Z" />
  <polygon
     id="polygon946"
     fill="#3f3d56"
     points="257.738 567.136 0 567.136 0 565.03 258.12 565.03 257.738 567.136" />
</svg>
